<?xml version="1.0" encoding="UTF-8" standalone="no"?>
<svg
   xmlns:dc="http://purl.org/dc/elements/1.1/"
   xmlns:cc="http://creativecommons.org/ns#"
   xmlns:rdf="http://www.w3.org/1999/02/22-rdf-syntax-ns#"
   xmlns:svg="http://www.w3.org/2000/svg"
   xmlns="http://www.w3.org/2000/svg"
   viewBox="0 0 352 102.66667"
   height="102.66667"
   width="352"
   xml:space="preserve"
   id="svg2"
   version="1.1"><metadata
     id="metadata8"><rdf:RDF><cc:Work
         rdf:about=""><dc:format>image/svg+xml</dc:format><dc:type
           rdf:resource="http://purl.org/dc/dcmitype/StillImage" /><dc:title></dc:title></cc:Work></rdf:RDF></metadata><defs
     id="defs6"><clipPath
       id="clipPath20"
       clipPathUnits="userSpaceOnUse"><path
         id="path18"
         d="M 0,0 H 264 V 77 H 0 Z" /></clipPath></defs><g
     transform="matrix(1.3333333,0,0,-1.3333333,0,102.66667)"
     id="g10"><g
       id="g12" /><g
       id="g14"><g
         clip-path="url(#clipPath20)"
         id="g16"><path
           id="path22"
           style="fill:#021a97;fill-opacity:1;fill-rule:nonzero;stroke:none"
           d="M 4.854102,0 H 88.1459 c 1.13633,0 2.17511,0.6420073 2.68329,1.658359 l 6.98643,13.972871 c 0.67662,1.35324 0.23969,2.99855 -1.01918,3.83779 L 45.75578,53.49615 C 45.26297,53.82468 44.68395,54 44.09168,54 H 28.85409 c -1.13633,0 -2.17512,-0.64201 -2.68329,-1.65837 l -2.48642,-4.9729 c -0.67661,-1.35324 -0.23967,-2.99854 1.01919,-3.83778 L 54.75581,23.49613 c 1.37859,-0.91905 1.75111,-2.78166 0.83205,-4.16025 -0.5564,-0.83459 -1.49309,-1.3359 -2.49615,-1.3359 H 10.85409 c -1.136313,0 -2.175102,-0.642 -2.683278,-1.65836 L 2.17082,4.341641 C 1.429853,2.859705 2.030526,1.057686 3.512461,0.3167184 3.929028,0.1084353 4.388367,0 4.854102,0 Z" /><path
           id="path24"
           style="fill:#021a97;fill-opacity:1;fill-rule:nonzero;stroke:none"
           d="m 139.8541,0 h 83.2918 c 1.1363,0 2.1751,0.6420073 2.6833,1.658359 l 6.9864,13.972871 c 0.6766,1.35324 0.2397,2.99855 -1.0192,3.83779 L 180.7558,53.49615 C 180.263,53.82468 179.6839,54 179.0917,54 h -15.2376 c -1.1363,0 -2.1751,-0.64201 -2.6833,-1.65837 l -2.4864,-4.9729 c -0.6766,-1.35324 -0.2397,-2.99854 1.0192,-3.83778 l 30.0522,-20.03482 c 1.3786,-0.91905 1.7511,-2.78166 0.8321,-4.16025 -0.5564,-0.83459 -1.4931,-1.3359 -2.4962,-1.3359 h -42.2376 c -1.1363,0 -2.1751,-0.642 -2.6833,-1.65836 l -6,-11.999979 C 136.4299,2.859705 137.0305,1.057686 138.5125,0.3167184 138.929,0.1084353 139.3884,0 139.8541,0 Z" /><path
           id="path26"
           style="fill:#021a97;fill-opacity:1;fill-rule:nonzero;stroke:none"
           d="m 103.8541,0 h 20.2918 c 1.1363,0 2.1751,0.6420072 2.6833,1.658359 l 27.5916,55.183291 c 0.5082,1.01635 1.547,1.65836 2.6833,1.65836 h 95.2917 c 1.1363,0 2.1751,0.642 2.6833,1.65835 l 6,11.99999 c 0.741,1.48192 0.1404,3.28395 -1.3416,4.02492 C 259.321,76.39156 258.8616,76.5 258.3959,76.5 H 40.1042 c -1.13631,0 -2.1751,-0.642 -2.68327,-1.65835 L 31.42085,62.84166 c -0.74097,-1.48193 -0.14031,-3.28395 1.34162,-4.02493 0.41657,-0.20828 0.87592,-0.31672 1.34166,-0.31672 h 89.29177 c 1.6568,0 3,-1.34315 3,-3 0,-0.46573 -0.1084,-0.92507 -0.3167,-1.34164 L 101.1708,4.34164 C 100.4299,2.859704 101.0305,1.057685 102.5125,0.3167179 102.929,0.1084351 103.3884,0 103.8541,0 Z" /></g></g></g></svg>