<?xml version="1.0" encoding="UTF-8" standalone="no"?>
<svg
   xmlns:dc="http://purl.org/dc/elements/1.1/"
   xmlns:cc="http://creativecommons.org/ns#"
   xmlns:rdf="http://www.w3.org/1999/02/22-rdf-syntax-ns#"
   xmlns:svg="http://www.w3.org/2000/svg"
   xmlns="http://www.w3.org/2000/svg"
   xmlns:xlink="http://www.w3.org/1999/xlink"
   version="1.1"
   id="svg2"
   viewBox="0 0 46.534228 54.659871"
   height="154.2623mm"
   width="131.32995mm">
  <defs
     id="defs4" />
  <metadata
     id="metadata7">
    <rdf:RDF>
      <cc:Work
         rdf:about="">
        <dc:format>image/svg+xml</dc:format>
        <dc:type
           rdf:resource="http://purl.org/dc/dcmitype/StillImage" />
        <dc:title></dc:title>
      </cc:Work>
    </rdf:RDF>
  </metadata>
  <g
     transform="translate(-172.41169,-173.48234)"
     id="layer1">
    <g
       transform="matrix(0.07589346,0,0,0.06561707,74.346717,784.9823)"
       id="g3972">
      <g
         id="g3920">
        <g
           id="g3922">
          <path
             d="m 100.237,425.635 c 12.589,0 24.639,-2.344 35.743,-6.604 2.574,11.482 4.901,23.9 6.954,37.205 6.45,41.809 7.831,77.488 7.843,77.844 l 0.149,3.996 2.172,3.359 c 10.514,16.264 24.903,30.104 42.766,41.133 14.114,8.713 30.44,15.701 48.527,20.775 30.676,8.605 56.799,9.041 61.724,9.041 0.378,0 0.504,0 0.877,0 4.925,0 31.048,-0.436 61.724,-9.035 18.087,-5.074 34.414,-12.062 48.527,-20.775 17.869,-11.029 32.258,-24.869 42.771,-41.139 l 2.173,-3.359 0.144,-3.994 c 0.012,-0.355 1.37,-35.773 7.797,-77.547 2.046,-13.316 4.374,-25.752 6.942,-37.246 10.92,4.105 22.741,6.352 35.078,6.352 55.166,0 100.041,-44.881 100.041,-100.041 0,-40.908 -24.68,-76.153 -59.93,-91.643 5.354,-32.854 2.58,-63.283 -8.295,-89.098 C 533.135,119.148 514.463,97.88 488.466,81.639 463.161,65.834 430.56,54.684 391.411,48.435 c 0.739,-3.342 1.341,-5.543 1.353,-5.583 l 6.071,-22.014 -22.513,3.829 c -13.076,2.225 -23.057,7.378 -30.326,12.767 1.674,-4.77 3.623,-9.207 5.217,-12.302 L 364.262,0 336.246,4.053 C 297.275,9.694 277.142,29.993 267.844,43.489 215,46.716 171.454,56.937 138.319,73.9 106.772,90.055 84.162,112.43 71.12,140.405 58.669,167.119 55.201,198.999 60.801,233.653 25.19,248.993 0.195,284.427 0.195,325.593 c 0,55.161 44.882,100.042 100.042,100.042 z m -2.786,-272.95 c 10.244,-21.979 28.445,-39.785 54.105,-52.918 31.02,-15.885 73.201,-25.195 125.363,-27.672 l 8.272,-0.39 3.875,-7.315 c 2.901,-5.475 10.245,-16.258 25.86,-23.957 -1.324,5.962 -2.092,12.216 -1.668,18.098 l 0.929,12.904 12.922,0.567 c 1.64,0.075 4.248,0.144 7.017,0.224 3.675,0.104 8.255,0.235 10.188,0.355 l 7.521,0.476 4.724,-5.87 c 0.78,-0.969 1.795,-2.109 3.056,-3.325 l -1.061,9.528 14.258,1.754 c 77.168,9.493 125.741,36.747 144.378,80.986 9.293,22.065 10.336,46.538 6.851,70.128 -1.439,9.745 -3.652,19.342 -6.375,28.554 -8.828,29.873 -23.028,55.738 -33.674,69.715 -9.235,12.125 -17.358,28.451 -24.318,48.82 -0.819,2.391 -1.622,4.838 -2.407,7.344 -0.304,0.975 -0.613,1.949 -0.918,2.941 -1.994,6.574 -3.881,13.529 -5.663,20.844 -3.521,14.457 -6.616,30.338 -9.275,47.639 -5.446,35.387 -7.367,65.822 -7.923,76.691 -38.002,53.893 -122.835,54.523 -126.498,54.523 l -0.441,0 -0.436,0 c -3.658,0 -88.496,-0.631 -126.498,-54.523 -0.556,-10.869 -2.477,-41.305 -7.923,-76.691 -2.688,-17.484 -5.83,-33.531 -9.396,-48.115 -2.763,-11.293 -5.784,-21.709 -9.063,-31.236 -6.919,-20.1 -14.974,-36.227 -24.123,-48.236 -10.783,-14.154 -24.943,-39.985 -33.737,-69.755 -2.723,-9.229 -4.936,-18.832 -6.369,-28.589 -3.627,-24.8 -2.245,-50.563 8.447,-73.499 z m 485.691,172.909 c 0,39.143 -31.845,70.988 -70.987,70.988 -9.528,0 -18.626,-1.891 -26.933,-5.314 5.108,-7.314 13.679,-18.906 23.653,-29.643 19.783,-21.297 32.545,-25.809 37.457,-23.201 l 13.633,-25.66 c -7.32,-3.893 -18.941,-6.729 -34.437,-0.229 7.396,-14.148 14.612,-31.054 20.076,-49.548 22.318,11.976 37.538,35.543 37.538,62.607 z M 67.428,262.655 c 5.773,19.663 13.529,37.538 21.406,52.242 -18.018,-9.453 -31.353,-6.438 -39.447,-2.139 l 13.632,25.66 c 4.884,-2.592 17.565,1.863 37.228,22.959 10.468,11.23 19.462,23.521 24.53,30.832 -7.647,2.826 -15.914,4.373 -24.536,4.373 -39.143,0 -70.988,-31.846 -70.988,-70.988 -0.004,-27.316 15.502,-51.073 38.175,-62.939 z"
             id="path3924" />
          <path
             d="m 127.977,231.377 c 9.517,21.073 27.505,42.198 53.458,62.79 5.934,4.707 11.678,9.212 17.238,13.524 10.055,7.791 19.485,14.928 28.216,21.348 -0.768,1.078 -1.542,2.15 -2.328,3.24 -7.71,10.674 -15.685,21.715 -21.371,42.52 -5.911,21.635 -8.668,51.686 -8.668,94.578 l 0,1.146 0.178,1.135 c 0.327,2.047 3.629,20.557 19.228,39.148 14.269,17.008 41.923,37.279 92.617,37.279 50.7,0 78.349,-20.271 92.617,-37.279 15.599,-18.592 18.907,-37.098 19.228,-39.148 l 0.178,-1.135 0,-1.146 c 0,-42.691 -2.769,-72.68 -8.719,-94.379 -5.704,-20.814 -13.696,-31.982 -21.424,-42.783 -0.757,-1.061 -1.508,-2.109 -2.247,-3.152 8.496,-6.242 17.657,-13.168 27.402,-20.713 5.818,-4.5 11.844,-9.229 18.075,-14.17 25.952,-20.592 43.941,-41.717 53.458,-62.791 0.36,-0.802 0.705,-1.605 1.043,-2.402 8.065,-19.176 9.115,-38.501 2.998,-56.049 -6.553,-18.797 -20.741,-34.797 -41.034,-46.274 -18.259,-10.325 -40.089,-16.012 -61.483,-16.012 l -160.178,0 c -21.394,0 -43.23,5.687 -61.483,16.012 -20.294,11.477 -34.482,27.477 -41.035,46.274 -6.14,17.617 -5.062,37.022 3.09,56.272 0.304,0.711 0.619,1.445 0.946,2.167 z m 98.482,-91.683 160.194,0 c 34.305,0 66.58,18.396 75.082,42.794 8.937,25.637 -8.158,57.218 -48.121,88.92 -21.079,16.722 -39.778,30.911 -55.578,42.169 l -10.823,7.711 6.725,11.465 c 3.737,6.381 7.372,11.455 10.881,16.361 7.091,9.912 12.697,17.748 17.025,33.555 4.512,16.463 7,40.168 7.562,72.174 l -165.698,0 c 0.556,-32.189 3.027,-55.963 7.516,-72.393 4.299,-15.719 9.854,-23.418 16.894,-33.164 3.399,-4.707 7.252,-10.043 11.059,-16.533 l 6.725,-11.465 -10.824,-7.711 C 239.273,302.318 220.573,288.13 199.5,271.408 c -39.963,-31.702 -57.052,-63.283 -48.121,-88.92 8.495,-24.398 40.776,-42.794 75.08,-42.794 z M 376.92,492.117 c -14.975,17.852 -38.65,26.898 -70.363,26.898 -31.065,0 -54.438,-8.703 -69.469,-25.855 -2.74,-3.129 -4.958,-6.281 -6.747,-9.264 l 152.426,0 c -1.588,2.649 -3.514,5.442 -5.847,8.221 z"
             id="path3926" />
          <path
             d="m 247.148,270.44 c 20.621,0 37.4,-16.78 37.4,-37.4 0,-20.621 -16.78,-37.4 -37.4,-37.4 -20.62,0 -37.4,16.78 -37.4,37.4 0.006,20.62 16.78,37.4 37.4,37.4 z m 0,-45.747 c 4.604,0 8.347,3.744 8.347,8.347 0,4.603 -3.743,8.347 -8.347,8.347 -4.604,0 -8.347,-3.744 -8.347,-8.347 0.007,-4.603 3.75,-8.347 8.347,-8.347 z"
             id="path3928" />
          <path
             d="m 365.965,270.44 c 20.62,0 37.399,-16.78 37.399,-37.4 0,-20.621 -16.773,-37.4 -37.399,-37.4 -20.621,0 -37.4,16.78 -37.4,37.4 -10e-4,20.62 16.779,37.4 37.4,37.4 z m 0,-45.747 c 4.603,0 8.347,3.744 8.347,8.347 0,4.603 -3.744,8.347 -8.347,8.347 -4.604,0 -8.348,-3.744 -8.348,-8.347 0,-4.603 3.744,-8.347 8.348,-8.347 z"
             id="path3930" />
          <path
             d="m 261.188,385.793 c 0,0 35.17,-7 25.006,-36.74 0,0 -30.481,13.369 -25.006,36.74 z"
             id="path3932" />
          <path
             d="m 351.925,385.793 c 5.47,-23.371 -25.006,-36.74 -25.006,-36.74 -10.158,29.74 25.006,36.74 25.006,36.74 z"
             id="path3934" />
        </g>
      </g>
    </g>
    <g
       id="g5721">
      <g
         id="g5768">
        <path
           id="text3388"
           transform="translate(169.5625,173.48234)"
           d="m 13.28125,0 c -0.56,0 -1.201885,0.95984375 -1.921875,2.8398438 -3,7.3600002 -5.0382031,13.5194532 -6.1582031,18.4394532 -0.93904,0.2144 -1.5787799,0.06336 -2.234375,1.519531 -0.6471649,1.437443 1.5794062,0.870597 1.7539062,0.841797 -0.24,1.24 -0.4004687,2.15875 -0.4804687,2.71875 -0.16,1.04 -0.279375,1.839453 -0.359375,2.439453 0,1.44 0.4795312,2.201172 1.5195312,2.201172 0.52,0 0.9201563,-0.320938 1.1601563,-0.960938 -0.08,-0.52 -0.1210938,-0.999453 -0.1210938,-1.439453 0,-1.12 0.2016407,-2.879218 0.6816407,-5.199218 0.545808,-0.05201 1.3598952,-0.267944 1.8107441,-0.301132 -0.3599031,1.016777 -0.6040266,2.715068 -0.6040266,2.715068 -0.2611948,1.174057 0.2416374,4.390172 0.2416374,4.390172 0.2292857,1.028424 1.360106,0.843567 1.3267833,1.683043 -0.062381,1.571523 0.00272,1.206948 -0.062381,1.571523 -0.1302135,0.729169 -0.3859848,1.722939 -0.3859848,2.790649 0,1.69271 0.286455,3.059892 0.8593748,4.101562 0.26077,0.44217 0.56558,0.769871 0.90039,1.019531 0.0362,1.33953 0.376186,2.555252 1.041016,3.638672 0.72916,1.11979 1.783852,1.679688 3.164062,1.679688 3.04662,0 6.169951,-0.956171 9.369141,-2.837891 -4e-4,0.0469 -0.0039,0.0981 -0.0039,0.144531 0,1.5625 0.273432,2.8125 0.820312,3.75 0.6476,1.139791 1.669593,1.710777 3.064453,1.716797 0.0538,1.29081 -0.285355,2.467398 0.359075,3.517579 0.72917,1.119789 2.457981,1.679687 3.838191,1.679687 1.12351,0 3.60573,-0.480418 4.75,-0.736328 1.053125,-0.363281 1.241818,-0.569043 2.435089,-0.565519 l 1.421026,0.108931 c 0.336555,0.05571 1.355263,0.185103 1.571619,0.185103 0.865424,0 1.562927,-0.196092 2.091797,-0.585937 0.552911,-0.389845 0.986315,-0.825928 1.298828,-1.308594 0.336555,-0.501231 0.563395,-0.983165 0.683594,-1.447265 0.120191,-0.464107 0.18164,-0.771411 0.18164,-0.919922 0,-0.81682 -0.20461,-1.671424 -0.613281,-2.5625 -0.408671,-0.909642 -0.866265,-1.781802 -1.371093,-2.617188 -0.480795,-0.853945 -0.925314,-1.643188 -1.333985,-2.367187 -0.408671,-0.742565 -0.613281,-1.355225 -0.613281,-1.837891 0,-0.779695 0.349724,-1.429428 1.046875,-1.949219 0.697143,-0.538362 1.839172,-0.826156 3.425781,-0.863281 0.67311,-0.01857 1.093445,-0.08198 1.261719,-0.193359 0.192315,-0.111381 0.287109,-0.353325 0.287109,-0.72461 0,-0.148511 -0.118977,-0.268506 -0.359375,-0.361328 -0.240389,-0.111381 -0.517564,-0.196257 -0.830078,-0.251953 -0.312513,-0.07426 -0.636101,-0.120106 -0.972656,-0.138672 -0.312514,-0.03714 -0.554375,-0.05469 -0.722656,-0.05469 -0.76926,0 -1.513183,0.222433 -2.234375,0.667969 -0.697144,0.426975 -1.32209,0.937197 -1.875,1.53125 -0.52887,0.594052 -0.962274,1.187203 -1.298828,1.78125 -0.312514,0.575487 -0.46875,1.022301 -0.46875,1.33789 0,0.35272 0.107862,0.778066 0.324218,1.279297 0.240398,0.501231 0.52868,1.039747 0.865235,1.615234 0.336554,0.556922 0.697401,1.143248 1.082031,1.75586 0.408671,0.594052 0.782586,1.178419 1.11914,1.753906 0.336555,0.556922 0.611769,1.084706 0.828126,1.585937 0.240397,0.501232 0.361328,0.939262 0.361328,1.310547 0,0.40841 -0.204603,0.787912 -0.613282,1.140625 -0.217329,0.188809 -0.471247,0.378391 -0.783203,0.400391 -0.342353,0.02414 -0.781549,0.03768 -1.345703,-0.07031 -1.070966,-0.205006 -1.181457,-0.525432 -2.984195,-0.373046 -1.750937,0.148008 -3.568539,0.935546 -5.131039,0.935546 -0.91146,0 -1.575518,-0.403637 -1.992188,-1.210937 -0.26805,-0.51173 -0.404655,-1.178168 -0.421875,-1.986328 0.3486,-0.11437 0.699151,-0.245784 1.050781,-0.396485 1.02737,-0.45865 2.197314,-1.150748 3.496094,-2.048828 0.36047,-0.20957 0.685245,-0.411941 0.953125,-0.607422 1.82291,-1.32812 2.734375,-2.877597 2.734375,-4.648437 0,-1.97916 -1.04166,-2.96875 -3.125,-2.96875 -2.21354,0 -4.166665,1.106763 -5.859375,3.320313 -1.15911,1.497929 -1.91,3.151878 -2.27539,4.955078 -0.5855,-0.39989 -0.884766,-1.236384 -0.884766,-2.533204 l 0.195307,-2.382812 c 1.770839,-2.10938 3.177089,-3.893232 4.21875,-5.351562 1.458339,-2.005211 2.552089,-3.789063 3.28125,-5.351563 0.859379,-1.82291 1.289062,-3.476568 1.289062,-4.960937 0,-0.98959 -0.26042,-1.809898 -0.78125,-2.460938 -0.52084,-0.67708 -1.158852,-1.015625 -1.914062,-1.015625 -0.9375,0 -1.875,0.455727 -2.8125,1.367187 -1.666661,1.822921 -3.229161,5.039058 -4.6875,9.648438 -0.29915,0.94923 -0.552097,1.843134 -0.785157,2.714844 l -0.978515,4.539062 c -1.23735,0.94928 -2.384445,1.709118 -3.421875,2.236328 -1.58854,0.78125 -3.164053,1.171875 -4.726563,1.171875 -0.91145,0 -1.575527,-0.403647 -1.992187,-1.210937 -0.20575,-0.39279 -0.336562,-0.875909 -0.394532,-1.44336 0.28067,-0.102509 0.56972,-0.218281 0.875,-0.363281 1.39229,-0.65951 2.891745,-1.723639 4.490235,-3.162109 0.0322,-0.0228 0.0764,-0.04771 0.107422,-0.07031 1.82292,-1.32813 2.734375,-2.877607 2.734375,-4.648437 0,-1.97917 -1.04167,-2.96875 -3.125,-2.96875 -2.21354,0 -4.166665,1.106772 -5.859375,3.320312 -0.29827,0.38547 -0.560921,0.785727 -0.806641,1.191407 0.0382,-0.59716 0.104542,-1.23085 0.232422,-1.94336 0,0 0.29322,-0.567815 0.533203,-0.765625 0.725599,-0.598088 1.05828,-1.017058 2.681198,-2.21923 0.407809,-0.302084 0.942543,-1.833695 1.052488,-3.362995 0.109946,-1.5293 0.06475,-3.056289 0.121663,-3.349129 1.55838,-0.0743 2.040335,0.496394 2.972176,0.765624 0.48,1.88 0.740479,3.245078 0.980469,4.205078 -0.12,0.24 -0.160156,0.439609 -0.160156,0.599609 0,0.4 0.199687,1.038985 0.679687,1.958985 0.4,0.92 0.801094,1.40039 1.121094,1.40039 0.45294,0 0.583126,-0.274867 0.972656,-0.929687 0.12185,-0.71674 0.230969,-0.979352 0.105469,-1.669922 -0.215,-0.98 -0.918606,-4.133038 -1.134766,-5.179687 0.76131,0.0657 1.571017,-0.121489 1.285157,-1.167969 -0.28586,-1.04648 -2.091797,-1.50586 -2.091797,-1.50586 -0.46125,-1.00521 -1.136897,-3.593664 -1.498047,-4.708984 C 19.334727,12.460635 17.580469,7.7196875 15.480469,2.6796875 14.720469,0.9196875 14.00125,0 13.28125,0 Z m 0.03906,3.7597656 c 1.360001,2.8 2.840391,6.4790624 4.400391,11.0390624 0.64,1.96 1.360078,4.121484 2.080078,6.521484 -1.125448,-0.303311 -1.1363,-0.312635 -2.37766,-0.452118 0,0 -0.504354,-0.941768 -1.167262,-1.362335 L 15.064453,18.75 l 0.357422,-1.615234 -3.910156,0.05469 -0.216797,1.326172 c 0,0 -0.421966,0.391442 -0.784916,0.789002 -0.36261,0.39717 -0.8662412,1.469757 -0.8662412,1.469757 -0.79329,0.0568 -0.9738298,0.133453 -2.0031398,0.225616 1.44,-5.76 3.319688,-11.4802344 5.679685,-17.2402374 z M 33.918566,25.167683 c 0.46875,0 0.703126,0.442704 0.703126,1.328124 0,0.9375 -0.247398,1.966148 -0.742188,3.085938 -0.46875,1.09375 -1.171875,2.369795 -2.109375,3.828125 -0.54687,0.85938 -1.549482,2.31771 -3.007813,4.375 0.390621,-1.95312 1.041675,-4.283858 1.953126,-6.992187 1.276049,-3.75 2.343745,-5.625 3.203124,-5.625 z m -14.638671,7.576171 c 0.59896,0 0.898437,0.286465 0.898437,0.859375 0,0.36805 -0.116238,0.739462 -0.330078,1.113282 -0.73575,0.74433 -1.440694,1.399326 -2.115234,1.966796 -0.80451,0.500561 -1.752218,0.959417 -2.867188,1.373047 0.31249,-1.43229 0.911455,-2.669267 1.796875,-3.710937 0.88542,-1.06771 1.757808,-1.601563 2.617188,-1.601563 z m 17.447265,7.970703 c 0.59896,0 0.898438,0.286456 0.898438,0.859376 0,0.48588 -0.209331,0.976696 -0.582032,1.472656 -0.917529,0.84452 -1.892485,1.572559 -2.921874,2.193359 -0.55272,0.27634 -1.146344,0.541439 -1.808594,0.787109 0.3125,-1.432289 0.911455,-2.669267 1.796875,-3.710937 0.88541,-1.0677 1.757817,-1.601563 2.617187,-1.601563 z"
           style="font-style:normal;font-weight:normal;font-size:40px;line-height:125%;font-family:sans-serif;letter-spacing:0px;word-spacing:0px;fill:#000000;fill-opacity:1;stroke:none;stroke-width:1px;stroke-linecap:butt;stroke-linejoin:miter;stroke-opacity:1" />
        <path
           transform="matrix(0.0165342,0,0,0.02097353,176.5941,176.69515)"
           style="fill:none;stroke:#000000;stroke-width:19.86892509;stroke-linecap:round;stroke-linejoin:round;stroke-miterlimit:4;stroke-dasharray:none;stroke-opacity:1"
           d="m 279.64267,664.1483 c 0,0 -14.69285,-94.67981 -26.78516,-115 -10.80799,-18.162 -15.42412,-15.07136 -23.47656,-21.35547 -23.31611,-18.19583 -43.70098,-46.16068 -44.12704,-76.97642 0,-48.03912 38.49142,-86.98243 85.97265,-86.98243 20.54942,0.48526 48.87719,14.85403 66.77735,31.29493 15.54077,15.34816 38.12629,25.49218 61.51171,25.49218 23.74062,0 41.61961,-7.44401 56.41993,-22.67968 13.31564,-12.62426 37.36146,-22.58291 60.75781,-25.01563 47.48123,-10e-6 85.97266,38.9433 85.97266,86.98242 0,48.03911 -37.32632,68.88127 -57.40235,81.625 -20.07603,12.74373 -16.32276,11.22265 -22.67383,21.54297 -12.09231,20.32019 -23.57031,97.5 -23.57031,97.5"
           id="path4994" />
        <path
           transform="matrix(0.0165342,0,0,0.02097353,176.5941,176.69515)"
           style="fill:#000000;fill-opacity:1;fill-rule:evenodd;stroke:#000000;stroke-width:1px;stroke-linecap:butt;stroke-linejoin:miter;stroke-opacity:1"
           d="m 362.82046,487.36221 c -1.05347,-6.49906 -6.9437,-10.3971 -10.44484,-15.52076 -7.62592,-7.9705 -16.42656,-15.55912 -27.16085,-18.81024 -7.73441,-2.08754 -15.67676,-3.55222 -23.71807,-3.26473 -10.73045,-0.0659 -21.76555,0.95293 -31.69688,5.26109 -6.43129,3.72108 -11.81252,9.96683 -13.43609,17.29387 0.30265,5.81119 5.69329,9.25866 8.82202,13.59759 6.29817,6.38938 13.66524,11.88626 21.76853,15.73117 7.14109,2.32276 14.75738,2.27313 22.13214,3.27751 9.11896,0.23838 18.43335,-0.77877 27.04122,-3.87649 8.72884,-3.74175 16.42869,-9.68549 25.53746,-12.55025 l 0.62922,-0.5236 0.52614,-0.61516 z"
           id="path5006" />
        <ellipse
           transform="matrix(0.0165342,0,0,0.02097353,176.5941,176.69515)"
           style="fill:#ffffff;fill-opacity:1;stroke:#000000;stroke-width:3.75;stroke-linecap:round;stroke-miterlimit:4;stroke-dasharray:none;stroke-opacity:1"
           id="path5013"
           cx="389.10715"
           cy="650.57654"
           rx="110.49706"
           ry="80.905861" />
        <ellipse
           ry="13.75"
           rx="9.1071424"
           cy="417.59253"
           cx="597.80872"
           id="ellipse5023"
           style="fill:#000000;fill-opacity:0.98678415;stroke:#000000;stroke-opacity:1"
           transform="matrix(0.01557568,0.00703735,-0.0055478,0.01975765,176.5941,176.69515)" />
        <ellipse
           transform="matrix(-0.01557568,0.00703735,0.0055478,0.01975765,176.5941,176.69515)"
           style="fill:#000000;fill-opacity:0.98678415;stroke:#000000;stroke-opacity:1"
           id="ellipse5025"
           cx="-133.24905"
           cy="679.12061"
           rx="9.1071424"
           ry="13.75" />
        <path
           transform="matrix(0.0165342,0,0,0.02097353,176.5941,176.69515)"
           style="fill:none;fill-rule:evenodd;stroke:#000000;stroke-width:11.59915638;stroke-linecap:round;stroke-linejoin:miter;stroke-miterlimit:4;stroke-dasharray:none;stroke-opacity:1"
           d="m 302.94582,673.22452 c 0,0 50.91478,17.45188 83.54403,17.32568 32.62926,-0.12619 89.64152,-13.57582 89.64152,-13.57582"
           id="path5029" />
        <path
           transform="matrix(0.0165342,0,0,0.02097353,176.5941,176.69515)"
           id="path5035"
           d="m 424.07684,486.85713 c 1.05347,-6.49906 6.9437,-10.3971 10.44484,-15.52076 7.62592,-7.9705 16.42656,-15.55912 27.16085,-18.81024 7.73441,-2.08754 15.67676,-3.55222 23.71807,-3.26473 10.73045,-0.0659 21.76555,0.95293 31.69688,5.26109 6.43129,3.72108 11.81252,9.96683 13.43609,17.29387 -0.30265,5.81119 -5.69329,9.25866 -8.82202,13.59759 -6.29817,6.38938 -13.66524,11.88626 -21.76853,15.73117 -7.14109,2.32276 -14.75738,2.27313 -22.13214,3.27751 -9.11896,0.23838 -18.43335,-0.77877 -27.04122,-3.87649 -8.72884,-3.74175 -16.42869,-9.68549 -25.53746,-12.55025 l -0.62922,-0.5236 -0.52614,-0.61516 z"
           style="fill:#000000;fill-opacity:1;fill-rule:evenodd;stroke:#000000;stroke-width:1px;stroke-linecap:butt;stroke-linejoin:miter;stroke-opacity:1" />
        <path
           style="fill:#ffffff;fill-opacity:1;stroke:#ffffff;stroke-width:0.15000001;stroke-miterlimit:4;stroke-dasharray:none;stroke-opacity:1"
           d="m 11.663477,15.865624 c 0,-0.586849 -0.295942,-1.362821 -0.677717,-1.776997 -0.639258,-0.693514 -0.823144,-1.445227 -0.526948,-2.154125 0.172496,-0.412842 0.676604,-0.826678 1.007004,-0.826678 0.259644,0 0.876135,0.380114 1.144079,0.705413 0.223902,0.271829 0.638691,0.438621 1.09079,0.438621 0.366654,0 0.49575,-0.05957 0.927186,-0.427836 0.275673,-0.235311 0.638625,-0.453614 0.80656,-0.485119 0.84885,-0.159245 1.559052,0.932249 1.280259,1.967604 -0.08267,0.307003 -0.258707,0.55768 -0.664457,0.946172 -0.541507,0.518475 -0.762087,0.952666 -0.763451,1.502782 -7.15e-4,0.289681 -0.103267,0.270081 -0.435541,-0.08324 -0.367466,-0.390745 -0.783934,-0.560275 -1.376377,-0.560275 -0.623382,0 -1.085383,0.198011 -1.488273,0.637864 -0.313079,0.341803 -0.323114,0.3454 -0.323114,0.115818 z m 1.045104,-2.168482 c 0.17991,-0.09649 0.343874,-0.225726 0.364366,-0.2872 0.02049,-0.06147 -0.112362,-0.261388 -0.295229,-0.444255 -0.292436,-0.292436 -0.390784,-0.332484 -0.816501,-0.332484 -0.413971,0 -0.507134,0.03528 -0.643759,0.243797 -0.151315,0.230936 -0.149688,0.257341 0.03083,0.500515 0.372602,0.501937 0.823021,0.607771 1.360296,0.319627 z m 2.87856,-0.172504 c 0.14912,-0.142865 0.271127,-0.330882 0.271127,-0.417815 0,-0.264964 -0.348827,-0.499621 -0.742704,-0.499621 -0.466858,0 -0.746048,0.151836 -0.976756,0.531206 l -0.183879,0.302364 0.355818,0.220316 c 0.446146,0.276244 0.895809,0.228174 1.276394,-0.13645 z"
           id="path5758"
           transform="translate(169.5625,173.48234)" />
        <path
           id="path5674"
           d="m 186.76477,185.68596 c 0,2.26041 -1.55071,6.45229 -3.67151,6.45229 -2.1208,0 -3.53668,-4.12446 -3.53668,-6.38487"
           style="fill:none;fill-opacity:1;stroke:#000000;stroke-width:0.52100003;stroke-miterlimit:4;stroke-dasharray:none;stroke-opacity:1" />
        <path
           id="path5696"
           d="m 182.40078,184.83042 c -0.26449,-0.2349 -0.607,-0.4923 -0.76114,-0.57201 -0.32317,-0.16712 -0.88602,-0.18967 -1.15402,-0.0462 -0.10142,0.0543 -0.1844,0.0797 -0.1844,0.0564 0,-0.17376 1.90612,-5.28616 2.40378,-6.44717 0.21913,-0.51121 0.14187,-0.613 0.99958,1.31696 0.51542,1.15978 2.12613,5.11314 2.12613,5.21843 0,0.0169 -0.14775,0.007 -0.32835,-0.0226 -0.54779,-0.0889 -0.94646,0.0451 -1.47406,0.49546 -0.67875,0.57937 -0.97587,0.5795 -1.62752,7.4e-4 l 0,0 z"
           style="fill:#000000;fill-opacity:1;stroke:#000000;stroke-width:0.72100002;stroke-miterlimit:4;stroke-dasharray:none;stroke-opacity:1" />
        <path
           id="path5717"
           d="m 180.60888,189.76215 c -0.27984,-0.61551 -0.68901,-1.83565 -0.68901,-2.05464 0,-0.0572 0.1482,0.0396 0.32933,0.21521 0.25748,0.24956 0.35943,0.45643 0.46727,0.94822 0.16464,0.75077 0.27926,1.53473 0.22439,1.53473 -0.0217,0 -0.17106,-0.28959 -0.33198,-0.64352 z"
           style="fill:#000000;fill-opacity:1;stroke:#000000;stroke-width:0.169;stroke-miterlimit:4;stroke-dasharray:none;stroke-opacity:1" />
        <path
           id="path5719"
           d="m 185.06815,190.47717 c 3.1e-4,-0.28197 0.28446,-1.7021 0.37408,-1.86954 0.11013,-0.20578 0.67811,-0.70886 0.73551,-0.65146 0.0732,0.0732 -0.37542,1.3658 -0.69291,1.99665 -0.31963,0.63511 -0.41693,0.75755 -0.41668,0.52435 z"
           style="fill:#000000;fill-opacity:1;stroke:#000000;stroke-width:0.26899999;stroke-miterlimit:4;stroke-dasharray:none;stroke-opacity:1" />
      </g>
      <g
         id="text5804"
         style="font-style:normal;font-weight:normal;font-size:36.2145462px;line-height:125%;font-family:sans-serif;letter-spacing:0px;word-spacing:0px;fill:#000000;fill-opacity:1;stroke:none;stroke-width:1px;stroke-linecap:butt;stroke-linejoin:miter;stroke-opacity:1"
         transform="scale(1.1379576,0.87876735)" />
    </g>
  </g>
</svg>
