<?xml version="1.0" encoding="UTF-8"?>
<svg xmlns="http://www.w3.org/2000/svg"
    xmlns:xlink="http://www.w3.org/1999/xlink"
    version="1.1" baseProfile="full"
    viewBox="-6 -1 12 12">
    <title>Musubi logo</title>
    <desc>Musubi</desc>

<!-- White frame -->
<path d="M -5,9
         L -5,1
         L -3,3
         L  0,0
         L 3,0
         A 2,2 0,1,1, 3,4
         A 2.5,2.5 0,1,1, 3,9
         l -1,0"
      stroke="white" stroke-width="1"
      stroke-linecap="square"
      stroke-linejoin="round"
      fill="none"/>

<path d="M -2,7
         A 2,2 0,1,0, 0,5
         A 2,2 0,1,1, 2,3"
      stroke="white" stroke-width="1"
      stroke-linecap="round"
      fill="none"/>

<path d="M -1,7
         A 1,1 0,1,0, 1,7"
      stroke="white" stroke-width="1"
      stroke-linecap="round"
      fill="none"/>

<path d="M -1,3
         A 1,1 0,1,0, 1,3"
      stroke="white" stroke-width="1"
      stroke-linecap="round"
      fill="none"/>

<!-- Actual logo -->
<path d="M -5,9
         L -5,1
         L -3,3
         L  0,0
         L 3,0
         A 2,2 0,1,1, 3,4
         A 2.5,2.5 0,1,1, 3,9
         l -1,0"
      stroke="black" stroke-width="0.5"
      stroke-linecap="butt"
      fill="none"/>

<path d="M -2,7
         A 2,2 0,1,0, 0,5
         A 2,2 0,1,1, 2,3"
      stroke="black" stroke-width="0.5"
      stroke-linecap="butt"
      fill="none"/>

<path d="M -1,7
         A 1,1 0,1,0, 1,7"
      stroke="indigo" stroke-width="0.5"
      stroke-linecap="butt"
      fill="none"/>

<path d="M -1,3
         A 1,1 0,1,0, 1,3"
      stroke="indigo" stroke-width="0.5"
      stroke-linecap="butt"
      fill="none"/>

<circle cx="0" cy="0" r="0.75" stroke="none" fill="white" />
<circle cx="0" cy="0" r="0.5" stroke="none" fill="black" />

</svg>
