<?xml version="1.0" encoding="UTF-8"?>
<svg xmlns="http://www.w3.org/2000/svg"
    xmlns:xlink="http://www.w3.org/1999/xlink"
    version="1.1" baseProfile="full"
    viewBox="-4 -3.5 8 8">
    <title>TreElM logo</title>
    <desc>TreElM</desc>

<path d="M -0.8,0.4
         l 1.6,0
         l 0,-1.6
         l -1.6,0 z "
      stroke="darkgreen" stroke-width="0.2" fill="forestgreen"/>

<path d="M -1.6,-0.6
         l 1,0
         l 0,-1
         l -1,0 z "
      stroke="darkgreen" stroke-width="0.1" fill="forestgreen"/>
<path d="M 0.6,-0.6
         l 1,0
         l 0,-1
         l -1,0 z "
      stroke="darkgreen" stroke-width="0.1" fill="forestgreen"/>

<path d="M -2.3125,-0.6875
         l 0.625,0
         l 0,-0.625
         l -0.625,0 z "
      stroke="darkgreen" stroke-width="0.05" fill="forestgreen"/>
<path d="M -1.3125,-1.6875
         l 0.625,0
         l 0,-0.625
         l -0.625,0 z "
      stroke="darkgreen" stroke-width="0.05" fill="forestgreen"/>

<path d="M 1.6875,-0.6875
         l 0.625,0
         l 0,-0.625
         l -0.625,0 z "
      stroke="darkgreen" stroke-width="0.05" fill="forestgreen"/>
<path d="M 0.6875,-1.6875
         l 0.625,0
         l 0,-0.625
         l -0.625,0 z "
      stroke="darkgreen" stroke-width="0.05" fill="forestgreen"/>

<path d="M -2.7,-0.3
         l 0.4,0
         l 0,-0.4
         l -0.4,0 z "
      stroke="darkgreen" stroke-width="0.05" fill="forestgreen"/>
<path d="M -2.7,-1.3
         l 0.4,0
         l 0,-0.4
         l -0.4,0 z "
      stroke="darkgreen" stroke-width="0.05" fill="forestgreen"/>
<path d="M -1.7,-2.3
         l 0.4,0
         l 0,-0.4
         l -0.4,0 z "
      stroke="darkgreen" stroke-width="0.05" fill="forestgreen"/>
<path d="M -0.7,-2.3
         l 0.4,0
         l 0,-0.4
         l -0.4,0 z "
      stroke="darkgreen" stroke-width="0.05" fill="forestgreen"/>
<path d="M 0.3,-2.3
         l 0.4,0
         l 0,-0.4
         l -0.4,0 z "
      stroke="darkgreen" stroke-width="0.05" fill="forestgreen"/>
<path d="M 1.3,-2.3
         l 0.4,0
         l 0,-0.4
         l -0.4,0 z "
      stroke="darkgreen" stroke-width="0.05" fill="forestgreen"/>
<path d="M 2.3,-1.3
         l 0.4,0
         l 0,-0.4
         l -0.4,0 z "
      stroke="darkgreen" stroke-width="0.05" fill="forestgreen"/>
<path d="M 2.3,-0.3
         l 0.4,0
         l 0,-0.4
         l -0.4,0 z "
      stroke="darkgreen" stroke-width="0.05" fill="forestgreen"/>

<path d="M 0,4
         L -1,3
         L 0,2
         L 1,3 z "
      stroke="black" stroke-width="0.4" fill="none"/>

<path d="M 0,2.2 L 0,-0.2"
      stroke="black" stroke-width="0.8" fill="none"/>

<path d="M -1.1,-1.1 L 0,0 L 1.1,-1.1"
      stroke="black" stroke-width="0.4" fill="none"/>

<path d="M -2.05,-1 L -1,-1 L -1,-2.05"
      stroke="black" stroke-width="0.2" fill="none"/>
<path d="M 2.05,-1 L 1,-1 L 1,-2.05"
      stroke="black" stroke-width="0.2" fill="none"/>

<path d="M -2.5,-0.5 L -2,-1 L -2.5,-1.5"
      stroke="black" stroke-width="0.1" fill="none"/>
<path d="M -1.5,-2.5 L -1,-2 L -0.5,-2.5"
      stroke="black" stroke-width="0.1" fill="none"/>
<path d="M 2.5,-0.5 L 2,-1 L 2.5,-1.5"
      stroke="black" stroke-width="0.1" fill="none"/>
<path d="M 1.5,-2.5 L 1,-2 L 0.5,-2.5"
      stroke="black" stroke-width="0.1" fill="none"/>

</svg>
